<svg xmlns="http://www.w3.org/2000/svg" xmlns:xlink="http://www.w3.org/1999/xlink" width="500" zoomAndPan="magnify" viewBox="0 0 375 374.999991" height="500" preserveAspectRatio="xMidYMid meet" version="1.0"><defs><g/></defs><g fill="#598562" fill-opacity="1"><g transform="translate(18.207139, 224.443408)"><g><path d="M 23.140625 -78.4375 C 22.503906 -78.4375 21.992188 -78.625 21.609375 -79 C 21.234375 -79.375 21.046875 -79.882812 21.046875 -80.53125 L 21.046875 -93.03125 C 21.046875 -93.664062 21.234375 -94.171875 21.609375 -94.546875 C 21.992188 -94.929688 22.503906 -95.125 23.140625 -95.125 L 35.65625 -95.125 C 36.289062 -95.125 36.796875 -94.929688 37.171875 -94.546875 C 37.554688 -94.171875 37.75 -93.664062 37.75 -93.03125 L 37.75 -80.53125 C 37.75 -79.882812 37.554688 -79.375 37.171875 -79 C 36.796875 -78.625 36.289062 -78.4375 35.65625 -78.4375 Z M 18.109375 -80.53125 C 18.109375 -79.882812 17.914062 -79.375 17.53125 -79 C 17.15625 -78.625 16.648438 -78.4375 16.015625 -78.4375 L 3.5625 -78.4375 C 2.925781 -78.4375 2.414062 -78.625 2.03125 -79 C 1.65625 -79.375 1.46875 -79.882812 1.46875 -80.53125 L 1.46875 -93.03125 C 1.46875 -93.664062 1.65625 -94.171875 2.03125 -94.546875 C 2.414062 -94.929688 2.925781 -95.125 3.5625 -95.125 L 16.015625 -95.125 C 16.648438 -95.125 17.15625 -94.929688 17.53125 -94.546875 C 17.914062 -94.171875 18.109375 -93.664062 18.109375 -93.03125 Z M 3.5625 0 C 2.925781 0 2.414062 -0.1875 2.03125 -0.5625 C 1.65625 -0.9375 1.46875 -1.445312 1.46875 -2.09375 L 1.46875 -73.390625 C 1.46875 -74.035156 1.65625 -74.546875 2.03125 -74.921875 C 2.414062 -75.296875 2.925781 -75.484375 3.5625 -75.484375 L 35.65625 -75.484375 C 36.289062 -75.484375 36.796875 -75.296875 37.171875 -74.921875 C 37.554688 -74.546875 37.75 -74.035156 37.75 -73.390625 L 37.75 -2.09375 C 37.75 -1.445312 37.554688 -0.9375 37.171875 -0.5625 C 36.796875 -0.1875 36.289062 0 35.65625 0 Z M 18.109375 -58.84375 L 18.109375 -16.6875 L 21.046875 -16.6875 L 21.046875 -58.84375 Z M 18.109375 -58.84375 "/></g></g></g><g fill="#598562" fill-opacity="1"><g transform="translate(57.421748, 224.443408)"><g><path d="M 3.5625 0 C 2.925781 0 2.414062 -0.1875 2.03125 -0.5625 C 1.65625 -0.9375 1.46875 -1.445312 1.46875 -2.09375 L 1.46875 -14.59375 C 1.46875 -15.238281 1.65625 -15.75 2.03125 -16.125 C 2.414062 -16.5 2.925781 -16.6875 3.5625 -16.6875 L 21.046875 -16.6875 L 21.046875 -58.84375 L 18.171875 -58.84375 L 18.171875 -21.734375 C 18.171875 -21.085938 17.976562 -20.578125 17.59375 -20.203125 C 17.21875 -19.828125 16.710938 -19.640625 16.078125 -19.640625 L 3.5625 -19.640625 C 2.925781 -19.640625 2.414062 -19.828125 2.03125 -20.203125 C 1.65625 -20.578125 1.46875 -21.085938 1.46875 -21.734375 L 1.46875 -73.453125 C 1.46875 -74.085938 1.65625 -74.59375 2.03125 -74.96875 C 2.414062 -75.351562 2.925781 -75.546875 3.5625 -75.546875 L 35.65625 -75.546875 C 36.289062 -75.546875 36.796875 -75.351562 37.171875 -74.96875 C 37.554688 -74.59375 37.75 -74.085938 37.75 -73.453125 L 37.75 -2.09375 C 37.75 -1.445312 37.554688 -0.9375 37.171875 -0.5625 C 36.796875 -0.1875 36.289062 0 35.65625 0 Z M 3.5625 0 "/></g></g></g><g fill="#598562" fill-opacity="1"><g transform="translate(96.636356, 224.443408)"><g><path d="M 18.171875 0 L 18.171875 37.125 C 18.171875 37.757812 17.976562 38.265625 17.59375 38.640625 C 17.21875 39.023438 16.710938 39.21875 16.078125 39.21875 L 3.5625 39.21875 C 2.925781 39.21875 2.414062 39.023438 2.03125 38.640625 C 1.65625 38.265625 1.46875 37.757812 1.46875 37.125 L 1.46875 -73.390625 C 1.46875 -74.035156 1.65625 -74.546875 2.03125 -74.921875 C 2.414062 -75.296875 2.925781 -75.484375 3.5625 -75.484375 L 16.078125 -75.484375 C 16.710938 -75.484375 17.21875 -75.296875 17.59375 -74.921875 C 17.976562 -74.546875 18.171875 -74.035156 18.171875 -73.390625 L 18.171875 -16.75 L 19.640625 -16.75 L 21.609375 -16.6875 C 22.179688 -16.6875 22.644531 -16.507812 23 -16.15625 C 23.363281 -15.800781 23.546875 -15.320312 23.546875 -14.71875 L 23.546875 -2.09375 C 23.546875 -1.445312 23.351562 -0.9375 22.96875 -0.5625 C 22.59375 -0.1875 22.085938 0 21.453125 0 Z M 18.171875 0 "/></g></g></g><g fill="#598562" fill-opacity="1"><g transform="translate(116.271962, 224.443408)"><g><path d="M -3.90625 -14.59375 C -3.90625 -15.238281 -3.710938 -15.75 -3.328125 -16.125 C -2.953125 -16.5 -2.445312 -16.6875 -1.8125 -16.6875 L 1.421875 -16.6875 L 1.421875 -73.453125 C 1.421875 -74.085938 1.609375 -74.59375 1.984375 -74.96875 C 2.359375 -75.351562 2.867188 -75.546875 3.515625 -75.546875 L 16.015625 -75.546875 C 16.648438 -75.546875 17.15625 -75.351562 17.53125 -74.96875 C 17.914062 -74.59375 18.109375 -74.085938 18.109375 -73.453125 L 18.109375 -16.6875 L 21.390625 -16.6875 C 22.035156 -16.6875 22.546875 -16.5 22.921875 -16.125 C 23.296875 -15.75 23.484375 -15.238281 23.484375 -14.59375 L 23.484375 -2.09375 C 23.484375 -1.445312 23.296875 -0.9375 22.921875 -0.5625 C 22.546875 -0.1875 22.035156 0 21.390625 0 L -1.8125 0 C -2.445312 0 -2.953125 -0.1875 -3.328125 -0.5625 C -3.710938 -0.9375 -3.90625 -1.445312 -3.90625 -2.09375 Z M 16.015625 2.9375 C 16.648438 2.9375 17.15625 3.125 17.53125 3.5 C 17.914062 3.882812 18.109375 4.394531 18.109375 5.03125 L 18.109375 17.484375 C 18.109375 18.128906 17.914062 18.640625 17.53125 19.015625 C 17.15625 19.390625 16.648438 19.578125 16.015625 19.578125 L 3.515625 19.578125 C 2.867188 19.578125 2.359375 19.390625 1.984375 19.015625 C 1.609375 18.640625 1.421875 18.128906 1.421875 17.484375 L 1.421875 5.03125 C 1.421875 4.394531 1.609375 3.882812 1.984375 3.5 C 2.359375 3.125 2.867188 2.9375 3.515625 2.9375 Z M 16.015625 2.9375 "/></g></g></g><g fill="#598562" fill-opacity="1"><g transform="translate(135.850965, 224.443408)"><g><path d="M 18.109375 -2.09375 C 18.109375 -1.445312 17.914062 -0.9375 17.53125 -0.5625 C 17.15625 -0.1875 16.648438 0 16.015625 0 L -1.8125 0 C -2.445312 0 -2.953125 -0.1875 -3.328125 -0.5625 C -3.710938 -0.9375 -3.90625 -1.445312 -3.90625 -2.09375 L -3.90625 -14.59375 C -3.90625 -15.238281 -3.710938 -15.75 -3.328125 -16.125 C -2.953125 -16.5 -2.445312 -16.6875 -1.8125 -16.6875 L 1.421875 -16.6875 L 1.421875 -112.609375 C 1.421875 -113.253906 1.609375 -113.765625 1.984375 -114.140625 C 2.359375 -114.515625 2.867188 -114.703125 3.515625 -114.703125 L 16.015625 -114.703125 C 16.648438 -114.703125 17.15625 -114.515625 17.53125 -114.140625 C 17.914062 -113.765625 18.109375 -113.253906 18.109375 -112.609375 Z M 18.109375 -2.09375 "/></g></g></g><g fill="#598562" fill-opacity="1"><g transform="translate(155.429968, 224.443408)"><g><path d="M 18.109375 -2.09375 C 18.109375 -1.445312 17.914062 -0.9375 17.53125 -0.5625 C 17.15625 -0.1875 16.648438 0 16.015625 0 L 3.5625 0 C 2.925781 0 2.414062 -0.1875 2.03125 -0.5625 C 1.65625 -0.9375 1.46875 -1.445312 1.46875 -2.09375 L 1.46875 -112.546875 C 1.46875 -113.191406 1.65625 -113.703125 2.03125 -114.078125 C 2.414062 -114.453125 2.925781 -114.640625 3.5625 -114.640625 L 16.015625 -114.640625 C 16.648438 -114.640625 17.15625 -114.453125 17.53125 -114.078125 C 17.914062 -113.703125 18.109375 -113.191406 18.109375 -112.546875 Z M 18.109375 -2.09375 "/></g></g></g><g fill="#598562" fill-opacity="1"><g transform="translate(175.008971, 224.443408)"><g/></g></g><g fill="#598562" fill-opacity="1"><g transform="translate(180.384725, 224.443408)"><g><path d="M 23.140625 -78.4375 C 22.503906 -78.4375 21.992188 -78.625 21.609375 -79 C 21.234375 -79.375 21.046875 -79.882812 21.046875 -80.53125 L 21.046875 -93.03125 C 21.046875 -93.664062 21.234375 -94.171875 21.609375 -94.546875 C 21.992188 -94.929688 22.503906 -95.125 23.140625 -95.125 L 35.65625 -95.125 C 36.289062 -95.125 36.796875 -94.929688 37.171875 -94.546875 C 37.554688 -94.171875 37.75 -93.664062 37.75 -93.03125 L 37.75 -80.53125 C 37.75 -79.882812 37.554688 -79.375 37.171875 -79 C 36.796875 -78.625 36.289062 -78.4375 35.65625 -78.4375 Z M 18.109375 -80.53125 C 18.109375 -79.882812 17.914062 -79.375 17.53125 -79 C 17.15625 -78.625 16.648438 -78.4375 16.015625 -78.4375 L 3.5625 -78.4375 C 2.925781 -78.4375 2.414062 -78.625 2.03125 -79 C 1.65625 -79.375 1.46875 -79.882812 1.46875 -80.53125 L 1.46875 -93.03125 C 1.46875 -93.664062 1.65625 -94.171875 2.03125 -94.546875 C 2.414062 -94.929688 2.925781 -95.125 3.5625 -95.125 L 16.015625 -95.125 C 16.648438 -95.125 17.15625 -94.929688 17.53125 -94.546875 C 17.914062 -94.171875 18.109375 -93.664062 18.109375 -93.03125 Z M 3.5625 0 C 2.925781 0 2.414062 -0.1875 2.03125 -0.5625 C 1.65625 -0.9375 1.46875 -1.445312 1.46875 -2.09375 L 1.46875 -73.390625 C 1.46875 -74.035156 1.65625 -74.546875 2.03125 -74.921875 C 2.414062 -75.296875 2.925781 -75.484375 3.5625 -75.484375 L 35.65625 -75.484375 C 36.289062 -75.484375 36.796875 -75.296875 37.171875 -74.921875 C 37.554688 -74.546875 37.75 -74.035156 37.75 -73.390625 L 37.75 -2.09375 C 37.75 -1.445312 37.554688 -0.9375 37.171875 -0.5625 C 36.796875 -0.1875 36.289062 0 35.65625 0 Z M 18.109375 -58.84375 L 18.109375 -16.6875 L 21.046875 -16.6875 L 21.046875 -58.84375 Z M 18.109375 -58.84375 "/></g></g></g><g fill="#598562" fill-opacity="1"><g transform="translate(219.599334, 224.443408)"><g><path d="M 3.5625 0 C 2.925781 0 2.414062 -0.1875 2.03125 -0.5625 C 1.65625 -0.9375 1.46875 -1.445312 1.46875 -2.09375 L 1.46875 -14.59375 C 1.46875 -15.238281 1.65625 -15.75 2.03125 -16.125 C 2.414062 -16.5 2.925781 -16.6875 3.5625 -16.6875 L 21.109375 -16.6875 L 21.109375 -58.796875 L 18.171875 -58.796875 L 18.171875 -21.734375 C 18.171875 -21.085938 17.976562 -20.578125 17.59375 -20.203125 C 17.21875 -19.828125 16.710938 -19.640625 16.078125 -19.640625 L 3.5625 -19.640625 C 2.925781 -19.640625 2.414062 -19.828125 2.03125 -20.203125 C 1.65625 -20.578125 1.46875 -21.085938 1.46875 -21.734375 L 1.46875 -73.390625 C 1.46875 -74.035156 1.65625 -74.546875 2.03125 -74.921875 C 2.414062 -75.296875 2.925781 -75.484375 3.5625 -75.484375 L 35.703125 -75.484375 C 36.347656 -75.484375 36.859375 -75.296875 37.234375 -74.921875 C 37.609375 -74.546875 37.796875 -74.035156 37.796875 -73.390625 L 37.796875 -16.6875 L 41.03125 -16.6875 C 41.664062 -16.6875 42.171875 -16.5 42.546875 -16.125 C 42.929688 -15.75 43.125 -15.238281 43.125 -14.59375 L 43.125 -2.09375 C 43.125 -1.445312 42.929688 -0.9375 42.546875 -0.5625 C 42.171875 -0.1875 41.664062 0 41.03125 0 Z M 3.5625 0 "/></g></g></g><g fill="#598562" fill-opacity="1"><g transform="translate(258.813942, 224.443408)"><g><path d="M -3.90625 -14.59375 C -3.90625 -15.238281 -3.710938 -15.75 -3.328125 -16.125 C -2.953125 -16.5 -2.445312 -16.6875 -1.8125 -16.6875 L 1.46875 -16.6875 L 1.46875 -73.390625 C 1.46875 -74.035156 1.65625 -74.546875 2.03125 -74.921875 C 2.414062 -75.296875 2.925781 -75.484375 3.5625 -75.484375 L 16.078125 -75.484375 C 16.710938 -75.484375 17.21875 -75.296875 17.59375 -74.921875 C 17.976562 -74.546875 18.171875 -74.035156 18.171875 -73.390625 L 18.171875 -16.6875 L 21.390625 -16.6875 C 22.035156 -16.6875 22.546875 -16.5 22.921875 -16.125 C 23.296875 -15.75 23.484375 -15.238281 23.484375 -14.59375 L 23.484375 -2.09375 C 23.484375 -1.445312 23.296875 -0.9375 22.921875 -0.5625 C 22.546875 -0.1875 22.035156 0 21.390625 0 L -1.8125 0 C -2.445312 0 -2.953125 -0.1875 -3.328125 -0.5625 C -3.710938 -0.9375 -3.90625 -1.445312 -3.90625 -2.09375 Z M 18.171875 37.125 C 18.171875 37.757812 17.976562 38.265625 17.59375 38.640625 C 17.21875 39.023438 16.710938 39.21875 16.078125 39.21875 L 3.5625 39.21875 C 2.925781 39.21875 2.414062 39.023438 2.03125 38.640625 C 1.65625 38.265625 1.46875 37.757812 1.46875 37.125 L 1.46875 24.609375 C 1.46875 23.972656 1.65625 23.460938 2.03125 23.078125 C 2.414062 22.703125 2.925781 22.515625 3.5625 22.515625 L 16.078125 22.515625 C 16.710938 22.515625 17.21875 22.703125 17.59375 23.078125 C 17.976562 23.460938 18.171875 23.972656 18.171875 24.609375 Z M 18.171875 17.484375 C 18.171875 18.128906 17.976562 18.640625 17.59375 19.015625 C 17.21875 19.390625 16.710938 19.578125 16.078125 19.578125 L 3.5625 19.578125 C 2.925781 19.578125 2.414062 19.390625 2.03125 19.015625 C 1.65625 18.640625 1.46875 18.128906 1.46875 17.484375 L 1.46875 5.03125 C 1.46875 4.394531 1.65625 3.882812 2.03125 3.5 C 2.414062 3.125 2.925781 2.9375 3.5625 2.9375 L 16.078125 2.9375 C 16.710938 2.9375 17.21875 3.125 17.59375 3.5 C 17.976562 3.882812 18.171875 4.394531 18.171875 5.03125 Z M 18.171875 17.484375 "/></g></g></g><g fill="#598562" fill-opacity="1"><g transform="translate(278.392945, 224.443408)"><g><path d="M -3.90625 -14.59375 C -3.90625 -15.238281 -3.710938 -15.75 -3.328125 -16.125 C -2.953125 -16.5 -2.445312 -16.6875 -1.8125 -16.6875 L 1.421875 -16.6875 L 1.421875 -76.34375 C 1.421875 -76.976562 1.609375 -77.484375 1.984375 -77.859375 C 2.359375 -78.242188 2.867188 -78.4375 3.515625 -78.4375 L 16.578125 -78.4375 C 17.554688 -78.4375 18.046875 -77.941406 18.046875 -76.953125 L 18.046875 -75.484375 L 35.59375 -75.484375 C 36.238281 -75.484375 36.75 -75.296875 37.125 -74.921875 C 37.5 -74.546875 37.6875 -74.035156 37.6875 -73.390625 L 37.6875 -16.6875 L 40.96875 -16.6875 C 41.613281 -16.6875 42.125 -16.5 42.5 -16.125 C 42.875 -15.75 43.0625 -15.238281 43.0625 -14.59375 L 43.0625 -2.09375 C 43.0625 -1.445312 42.875 -0.9375 42.5 -0.5625 C 42.125 -0.1875 41.613281 0 40.96875 0 L -1.8125 0 C -2.445312 0 -2.953125 -0.1875 -3.328125 -0.5625 C -3.710938 -0.9375 -3.90625 -1.445312 -3.90625 -2.09375 Z M 21 -58.84375 L 18.046875 -58.84375 L 18.046875 -16.6875 L 21 -16.6875 Z M 21 -58.84375 "/></g></g></g><g fill="#598562" fill-opacity="1"><g transform="translate(317.550949, 224.443408)"><g><path d="M -1.8125 0 C -2.445312 0 -2.953125 -0.1875 -3.328125 -0.5625 C -3.710938 -0.9375 -3.90625 -1.445312 -3.90625 -2.09375 L -3.90625 -14.59375 C -3.90625 -15.238281 -3.710938 -15.75 -3.328125 -16.125 C -2.953125 -16.5 -2.445312 -16.6875 -1.8125 -16.6875 L 21.046875 -16.6875 L 21.046875 -19.578125 L 3.515625 -19.578125 C 2.867188 -19.578125 2.359375 -19.765625 1.984375 -20.140625 C 1.609375 -20.515625 1.421875 -21.023438 1.421875 -21.671875 L 1.421875 -73.390625 C 1.421875 -74.035156 1.609375 -74.546875 1.984375 -74.921875 C 2.359375 -75.296875 2.867188 -75.484375 3.515625 -75.484375 L 35.59375 -75.484375 C 36.238281 -75.484375 36.75 -75.296875 37.125 -74.921875 C 37.5 -74.546875 37.6875 -74.035156 37.6875 -73.390625 L 37.6875 -2.09375 C 37.6875 -1.445312 37.5 -0.9375 37.125 -0.5625 C 36.75 -0.1875 36.238281 0 35.59375 0 Z M 1.421875 -92.96875 C 1.421875 -93.613281 1.609375 -94.125 1.984375 -94.5 C 2.359375 -94.875 2.867188 -95.0625 3.515625 -95.0625 L 16.015625 -95.0625 C 16.648438 -95.0625 17.15625 -94.875 17.53125 -94.5 C 17.914062 -94.125 18.109375 -93.613281 18.109375 -92.96875 L 18.109375 -80.46875 C 18.109375 -79.820312 17.914062 -79.3125 17.53125 -78.9375 C 17.15625 -78.5625 16.648438 -78.375 16.015625 -78.375 L 3.515625 -78.375 C 2.867188 -78.375 2.359375 -78.5625 1.984375 -78.9375 C 1.609375 -79.3125 1.421875 -79.820312 1.421875 -80.46875 Z M 21.046875 -92.96875 C 21.046875 -93.613281 21.234375 -94.125 21.609375 -94.5 C 21.992188 -94.875 22.503906 -95.0625 23.140625 -95.0625 L 35.59375 -95.0625 C 36.238281 -95.0625 36.75 -94.875 37.125 -94.5 C 37.5 -94.125 37.6875 -93.613281 37.6875 -92.96875 L 37.6875 -80.46875 C 37.6875 -79.820312 37.5 -79.3125 37.125 -78.9375 C 36.75 -78.5625 36.238281 -78.375 35.59375 -78.375 L 23.140625 -78.375 C 22.503906 -78.375 21.992188 -78.5625 21.609375 -78.9375 C 21.234375 -79.3125 21.046875 -79.820312 21.046875 -80.46875 Z M 18.109375 -58.796875 L 18.109375 -36.265625 L 21.046875 -36.265625 L 21.046875 -58.796875 Z M 18.109375 -58.796875 "/></g></g></g></svg>